Coordinates
version=1
nRows=65
nColumns=12
inDegrees=yes

Units are S.I. units (second, meters, Newtons, ...)
Angles are in degrees

endheader
time	SC_y	SC_z	SC_x	AC_y	AC_z	AC_x	GH_y	GH_z	GH_yy	EL_x	PS_y
       0.0              -25.18           4.63          75.75          68.92         -15.14          2.066          11.96          8.692         -41.09          115.7          78.77
   0.02064              -25.19           4.63          75.75          68.92         -15.14          2.063          11.95          8.703         -41.07          115.7          78.77
   0.04128              -25.19           4.63          75.74          68.92         -15.14           2.06          11.92          8.715         -41.06          115.6          78.76
   0.06192              -25.19           4.63          75.74          68.92         -15.14          2.057           11.9          8.727         -41.05          115.6          78.75
   0.08257               -25.2           4.63          75.73          68.92         -15.14          2.053          11.88           8.74         -41.03          115.6          78.75
    0.1032               -25.2          4.629          75.73          68.92         -15.14           2.05          11.85          8.753         -41.02          115.6          78.74
    0.1238              -25.21          4.629          75.72          68.91         -15.14          2.046          11.83          8.768          -41.0          115.6          78.73
    0.1445              -25.21          4.629          75.71          68.91         -15.14          2.042           11.8          8.784         -40.98          115.5          78.73
    0.1651              -25.22          4.629          75.71          68.91         -15.14          2.037          11.77          8.801         -40.96          115.5          78.72
    0.1858              -25.22          4.629           75.7          68.91         -15.14          2.032          11.74          8.819         -40.94          115.5          78.71
    0.2064              -25.23          4.628          75.69          68.91         -15.14          2.027           11.7          8.838         -40.92          115.5           78.7
    0.2271              -25.24          4.628          75.68           68.9         -15.14          2.021          11.66          8.859          -40.9          115.4          78.69
    0.2477              -25.24          4.628          75.67           68.9         -15.14          2.015          11.62          8.881         -40.87          115.4          78.68
    0.2683              -25.25          4.627          75.66           68.9         -15.13          2.009          11.58          8.905         -40.84          115.4          78.66
     0.289              -25.26          4.627          75.65           68.9         -15.13          2.002          11.53          8.932         -40.81          115.3          78.65
    0.3096              -25.27          4.627          75.64          68.89         -15.13          1.994          11.48           8.96         -40.78          115.3          78.64
    0.3303              -25.28          4.626          75.62          68.89         -15.13          1.986          11.42          8.991         -40.75          115.3          78.62
    0.3509              -25.29          4.626          75.61          68.89         -15.13          1.977          11.36          9.025         -40.71          115.2           78.6
    0.3715               -25.3          4.625          75.59          68.88         -15.13          1.967           11.3          9.062         -40.67          115.2          78.59
    0.3922              -25.32          4.625          75.58          68.88         -15.13          1.956          11.22          9.102         -40.62          115.1          78.56
    0.4128              -25.33          4.624          75.56          68.87         -15.13          1.944          11.14          9.146         -40.57          115.0          78.54
    0.4335              -25.35          4.623          75.54          68.87         -15.12          1.931          11.05          9.195         -40.52          115.0          78.52
    0.4541              -25.36          4.623          75.51          68.86         -15.12          1.916          10.96          9.249         -40.46          114.9          78.49
    0.4748              -25.38          4.622          75.49          68.85         -15.12            1.9          10.85          9.308         -40.39          114.8          78.46
    0.4954               -25.4          4.621          75.46          68.85         -15.12          1.882          10.73          9.375         -40.31          114.7          78.43
     0.516              -25.43           4.62          75.43          68.84         -15.11          1.862          10.59          9.449         -40.23          114.6          78.39
    0.5367              -25.45          4.619          75.39          68.83         -15.11           1.84          10.44          9.532         -40.14          114.5          78.35
    0.5573              -25.48          4.618          75.35          68.82         -15.11          1.815          10.28          9.625         -40.03          114.4           78.3
     0.578              -25.52          4.616           75.3          68.81          -15.1          1.787          10.08           9.73         -39.91          114.2          78.25
    0.5986              -25.56          4.615          75.25           68.8          -15.1          1.754          9.868           9.85         -39.78          114.1          78.19
    0.6192               -25.6          4.613          75.19          68.78         -15.09          1.718          9.621          9.986         -39.62          113.9          78.12
    0.6399              -25.65          4.611          75.12          68.76         -15.09          1.675          9.337          10.14         -39.45          113.7          78.04
    0.6605              -25.71          4.608          75.05          68.74         -15.08          1.627          9.009          10.32         -39.24          113.4          77.95
    0.6812              -25.78          4.605          74.96          68.72         -15.07           1.57          8.629          10.53         -39.01          113.1          77.84
    0.7018              -25.86          4.602          74.85          68.69         -15.07          1.504          8.183          10.78         -38.73          112.8          77.72
    0.7224              -25.95          4.598          74.72          68.66         -15.05          1.426          7.658          11.07          -38.4          112.4          77.57
    0.7431              -26.06          4.593          74.57          68.62         -15.04          1.333          7.034          11.41         -38.01          111.9           77.4
    0.7637               -26.2          4.588          74.39          68.58         -15.03          1.222          6.286          11.83         -37.54          111.4          77.19
    0.7844              -26.36          4.581          74.18          68.52         -15.01          1.087          5.381          12.33         -36.98          110.7          76.94
     0.805              -26.55          4.572          73.91          68.46         -14.99         0.9226          4.276          12.94         -36.29          109.8          76.63
    0.8257               -26.8          4.562          73.59          68.37         -14.96         0.7197          2.911          13.69         -35.44          108.8          76.25
    0.8463               -27.1          4.549          73.18          68.27         -14.92         0.4667           1.21          14.63         -34.38          107.5          75.78
    0.8669              -27.48          4.533          72.67          68.14         -14.88         0.1479        -0.9336          15.81         -33.04          105.9          75.18
    0.8876              -27.97          4.513          72.01          67.98         -14.83        -0.2573         -3.658          17.31         -31.34          103.8          74.42
    0.9082              -28.59          4.486          71.18          67.77         -14.76         -0.776         -7.146          19.24         -29.17          101.2          73.45
    0.9289              -29.39          4.453          70.11           67.5         -14.66         -1.442         -11.62          21.71         -26.38          97.77          72.21
    0.9495               -30.4           4.41          68.74          67.15         -14.55         -2.292         -17.34          24.86         -22.82          93.43          70.62
    0.9701              -31.68          4.356          67.02          66.72          -14.4         -3.361         -24.53          28.83         -18.33          87.97          68.62
    0.9908              -33.25           4.29          64.92          66.19         -14.23         -4.663         -33.29          33.66         -12.87          81.32          66.18
     1.011              -35.05          4.213          62.49          65.58         -14.02         -6.173         -43.44          39.27         -6.541          73.62          63.35
     1.032              -37.01           4.13          59.86          64.91          -13.8         -7.808         -54.43          45.34         0.3135          65.27          60.29
     1.053              -38.97          4.048          57.23          64.25         -13.58         -9.444         -65.43           51.4          7.168          56.93          57.23
     1.073              -40.78          3.971           54.8          63.63         -13.37         -10.95         -75.58          57.01           13.5          49.22          54.41
     1.094              -42.34          3.905           52.7          63.11         -13.19         -12.26         -84.34          61.84          18.96          42.58          51.97
     1.115              -43.62          3.851          50.98          62.67         -13.05         -13.33         -91.53          65.81          23.44          37.12          49.97
     1.135              -44.64          3.808          49.61          62.33         -12.93         -14.18         -97.24          68.96          27.01          32.78          48.38
     1.156              -45.44          3.774          48.54          62.06         -12.84         -14.84         -101.7          71.43           29.8          29.39          47.13
     1.177              -46.06          3.748           47.7          61.85         -12.77         -15.36         -105.2          73.36          31.97          26.74          46.16
     1.197              -46.55          3.728          47.05          61.68         -12.71         -15.76         -107.9          74.86          33.67          24.67           45.4
     1.218              -46.93          3.712          46.54          61.55         -12.67         -16.08         -110.1          76.04          35.01          23.04          44.81
     1.238              -47.23          3.699          46.13          61.45         -12.64         -16.34         -111.8          76.98          36.07          21.75          44.33
     1.259              -47.47          3.689           45.8          61.37         -12.61         -16.54         -113.1          77.73          36.92          20.72          43.95
      1.28              -47.67           3.68          45.54           61.3         -12.59          -16.7         -114.2          78.34          37.61          19.88          43.64
       1.3              -47.83          3.673          45.32          61.24         -12.57         -16.84         -115.2          78.84          38.17          19.19          43.39
     1.321              -47.96          3.668          45.14           61.2         -12.55         -16.95         -115.9          79.26          38.64          18.62          43.18
